<svg xmlns="http://www.w3.org/2000/svg" width="48" height="48" viewBox="0 0 48 48">
  <path fill="#c0c0c0" stroke="#111" stroke-width="2" d="M3 3h42v42H3z"/>
  <path stroke="#fff" stroke-width="3" d="M5 43V5h38"/>
  <path stroke="#777" stroke-width="2" d="M17 5v38M31 5v38M5 17h38M5 31h38"/>
  <path stroke="#111" stroke-width="2" d="M24 18v12M18 24h12M20 20l8 8M20 28l8-8"/>
  <circle cx="24" cy="24" r="5" fill="#111"/><path stroke="#fff" d="M22 21h2"/>
  <path stroke="#111" stroke-width="2" d="M10 7v8M7 15h7"/><path fill="#e22" d="M11 7l6 3-6 2z"/>
  <path fill="#0000c0" d="M36 34h2v7h-2zM34 39h6v2h-6zM34 35l2-1v2h-2z"/>
</svg>
